<svg xmlns="http://www.w3.org/2000/svg" viewBox="0 0 2552 1248" width="100%" height="100%" fill="none">
  <path fill-rule="evenodd" fill="#0055FF" d="M 1427 438 L 1425 438 L 1420 444 L 1416 461 L 1408 473 L 1403 491 L 1396 503 L 1390 531 L 1377 555 L 1368 589 L 1359 603 L 1356 618 L 1348 633 L 1343 654 L 1336 666 L 1328 694 L 1322 704 L 1319 716 L 1314 725 L 1311 741 L 1307 750 L 1300 759 L 1295 782 L 1288 794 L 1284 814 L 1275 834 L 1273 846 L 1264 860 L 1262 871 L 1341 871 L 1356 823 L 1363 810 L 1368 792 L 1379 765 L 1380 758 L 1390 735 L 1391 726 L 1398 712 L 1408 682 L 1411 678 L 1415 663 L 1430 630 L 1432 617 L 1430 560 L 1433 535 L 1434 497 L 1430 455 L 1431 444 Z M 916 429 L 913 430 L 910 441 L 912 457 L 911 498 L 913 552 L 911 837 L 913 871 L 993 871 L 993 631 L 986 602 L 978 588 L 956 527 L 955 516 L 949 507 L 946 496 L 937 479 L 931 457 L 925 449 L 921 437 Z M 78 68 L 72 75 L 72 871 L 266 871 L 266 589 L 271 584 L 413 585 L 452 583 L 465 579 L 482 578 L 493 574 L 506 572 L 513 568 L 520 567 L 540 559 L 578 538 L 599 523 L 619 505 L 642 478 L 663 441 L 675 411 L 683 382 L 683 372 L 687 357 L 688 343 L 687 295 L 683 280 L 682 263 L 675 239 L 671 233 L 670 226 L 654 192 L 634 161 L 623 148 L 603 130 L 585 117 L 547 97 L 514 85 L 506 84 L 501 81 L 489 80 L 479 76 L 435 69 Z M 265 225 L 270 220 L 374 221 L 402 223 L 425 227 L 446 236 L 458 244 L 474 260 L 484 279 L 488 291 L 490 317 L 487 365 L 480 382 L 466 402 L 445 419 L 426 427 L 408 431 L 280 432 L 270 430 L 266 425 Z M 956 67 L 960 97 L 963 103 L 971 110 L 973 114 L 976 136 L 995 177 L 1002 202 L 1010 213 L 1015 224 L 1017 234 L 1031 265 L 1035 280 L 1055 320 L 1057 332 L 1065 344 L 1068 362 L 1076 375 L 1081 394 L 1093 416 L 1101 442 L 1114 468 L 1132 519 L 1140 532 L 1145 549 L 1152 562 L 1157 583 L 1169 604 L 1176 606 L 1183 601 L 1191 589 L 1197 561 L 1209 539 L 1212 520 L 1204 504 L 1198 485 L 1192 475 L 1175 428 L 1124 306 L 1122 297 L 1107 265 L 1102 248 L 1093 231 L 1087 211 L 1068 168 L 1063 150 L 1047 116 L 1042 100 L 1036 89 L 1035 82 L 1027 69 Z M 1637 67 L 1638 89 L 1635 101 L 1637 136 L 1637 812 L 1635 848 L 1639 863 L 1639 871 L 1719 871 L 1719 75 L 1718 71 L 1711 67 Z" />
  <path fill-rule="evenodd" fill="#10B981" d="M 1775 68 L 1772 72 L 1770 92 L 1770 622 L 1772 701 L 1772 871 L 1964 870 L 1964 536 L 1966 530 L 1970 526 L 1975 527 L 1981 533 L 1988 545 L 2074 658 L 2085 675 L 2151 758 L 2236 871 L 2471 871 L 2419 806 L 2386 760 L 2316 674 L 2299 650 L 2160 477 L 2155 467 L 2157 458 L 2171 438 L 2313 263 L 2323 248 L 2334 236 L 2388 164 L 2406 144 L 2416 129 L 2448 92 L 2461 74 L 2461 69 L 2448 67 L 2264 67 L 2240 69 L 2231 78 L 2227 86 L 2160 172 L 2115 234 L 2104 246 L 2043 328 L 2033 339 L 1987 404 L 1973 420 L 1970 420 L 1966 413 L 1964 385 L 1966 86 L 1962 69 L 1956 67 Z M 713 72 L 711 81 L 712 871 L 909 871 L 908 603 L 910 586 L 908 492 L 910 469 L 907 453 L 907 432 L 909 424 L 915 419 L 920 425 L 928 445 L 933 451 L 940 478 L 949 495 L 952 506 L 958 515 L 961 531 L 967 541 L 977 573 L 990 601 L 996 627 L 998 626 L 1002 630 L 1028 699 L 1039 723 L 1045 747 L 1063 789 L 1092 871 L 1259 871 L 1263 853 L 1280 815 L 1286 790 L 1293 779 L 1297 758 L 1307 742 L 1312 721 L 1327 686 L 1336 657 L 1341 649 L 1346 629 L 1352 619 L 1356 600 L 1366 585 L 1375 549 L 1380 538 L 1388 527 L 1392 502 L 1399 491 L 1406 469 L 1414 454 L 1417 440 L 1420 434 L 1426 430 L 1431 430 L 1435 436 L 1438 499 L 1435 556 L 1436 620 L 1434 629 L 1438 635 L 1437 691 L 1439 712 L 1437 871 L 1634 871 L 1634 857 L 1632 851 L 1633 129 L 1631 115 L 1631 104 L 1634 90 L 1633 67 L 1408 68 L 1401 74 L 1390 99 L 1371 154 L 1340 226 L 1316 291 L 1293 342 L 1291 351 L 1269 402 L 1255 440 L 1236 480 L 1224 516 L 1220 521 L 1215 523 L 1214 534 L 1210 546 L 1199 565 L 1196 587 L 1184 606 L 1175 613 L 1168 610 L 1154 586 L 1148 561 L 1143 554 L 1136 533 L 1127 518 L 1118 489 L 1097 442 L 1088 414 L 1079 398 L 1076 385 L 1064 362 L 1062 347 L 1055 335 L 1053 323 L 1048 316 L 1039 292 L 1033 283 L 1009 220 L 999 204 L 991 177 L 973 138 L 969 116 L 959 103 L 950 68 L 720 68 Z" />
  <path fill-rule="evenodd" fill="#003380" d="M 1622 1001 L 1618 1004 L 1621 1008 L 1621 1023 L 1619 1030 L 1623 1034 L 1665 1035 L 1670 1040 L 1671 1189 L 1672 1191 L 1678 1193 L 1708 1193 L 1712 1190 L 1714 1181 L 1714 1039 L 1720 1034 L 1763 1034 L 1767 1028 L 1768 1006 L 1765 1002 L 1760 1001 Z M 1438 1002 L 1434 1008 L 1436 1011 L 1434 1013 L 1434 1078 L 1436 1138 L 1441 1152 L 1453 1170 L 1463 1178 L 1478 1186 L 1485 1187 L 1493 1191 L 1503 1192 L 1534 1191 L 1549 1186 L 1561 1179 L 1580 1161 L 1591 1139 L 1593 1114 L 1593 1039 L 1591 1036 L 1589 1018 L 1590 1008 L 1594 1006 L 1592 1003 L 1585 1001 L 1555 1001 L 1550 1004 L 1548 1013 L 1547 1135 L 1534 1148 L 1518 1153 L 1510 1153 L 1498 1150 L 1490 1146 L 1482 1138 L 1480 1133 L 1479 1007 L 1473 1001 Z M 1306 1002 L 1303 1005 L 1303 1186 L 1305 1191 L 1405 1191 L 1408 1186 L 1410 1170 L 1409 1162 L 1406 1159 L 1402 1158 L 1399 1160 L 1393 1160 L 1390 1157 L 1352 1158 L 1348 1155 L 1346 1151 L 1346 1007 L 1340 1001 Z M 708 1004 L 705 1008 L 703 1016 L 700 1021 L 699 1029 L 672 1099 L 671 1106 L 668 1111 L 658 1143 L 645 1174 L 646 1176 L 641 1186 L 642 1191 L 681 1191 L 687 1184 L 695 1162 L 703 1157 L 765 1156 L 770 1157 L 775 1162 L 776 1169 L 780 1177 L 783 1189 L 785 1191 L 819 1193 L 825 1192 L 827 1190 L 827 1185 L 824 1174 L 820 1166 L 812 1140 L 808 1133 L 801 1109 L 796 1100 L 796 1095 L 792 1088 L 790 1078 L 784 1068 L 777 1044 L 773 1038 L 772 1030 L 767 1020 L 764 1008 L 757 1002 L 750 1001 L 717 1001 Z M 735 1054 L 743 1069 L 751 1093 L 751 1098 L 756 1108 L 757 1120 L 753 1125 L 744 1124 L 731 1127 L 728 1124 L 716 1124 L 712 1121 L 712 1108 L 719 1090 L 720 1083 L 724 1075 L 725 1068 Z M 2262 1003 L 2255 1000 L 2248 1003 L 2241 1000 L 2237 1003 L 2229 1003 L 2226 1000 L 2221 1006 L 2221 1114 L 2218 1118 L 2216 1118 L 2213 1115 L 2212 1112 L 2200 1098 L 2198 1093 L 2158 1034 L 2146 1012 L 2139 1004 L 2122 1001 L 2098 1001 L 2093 1005 L 2093 1081 L 2091 1084 L 2094 1087 L 2095 1118 L 2092 1143 L 2094 1164 L 2092 1169 L 2094 1177 L 2093 1188 L 2095 1191 L 2100 1193 L 2130 1192 L 2135 1187 L 2136 1083 L 2140 1079 L 2143 1079 L 2148 1083 L 2216 1186 L 2221 1191 L 2252 1193 L 2262 1190 L 2264 1183 L 2265 1007 Z M 1799 1001 L 1795 1004 L 1794 1007 L 1795 1189 L 1798 1192 L 1830 1192 L 1834 1190 L 1836 1184 L 1837 1007 L 1833 1002 L 1828 1000 Z M 615 1001 L 580 1001 L 572 1003 L 566 1009 L 546 1045 L 541 1052 L 536 1056 L 522 1042 L 514 1028 L 509 1023 L 502 1009 L 494 1002 L 452 1001 L 447 1004 L 448 1007 L 450 1007 L 455 1012 L 455 1017 L 472 1039 L 477 1049 L 502 1085 L 505 1092 L 504 1102 L 496 1111 L 475 1147 L 458 1171 L 459 1174 L 449 1189 L 451 1191 L 487 1192 L 494 1190 L 508 1167 L 514 1160 L 522 1143 L 529 1134 L 532 1134 L 540 1141 L 573 1190 L 581 1192 L 612 1193 L 620 1191 L 619 1186 L 616 1184 L 616 1181 L 599 1155 L 593 1149 L 582 1129 L 570 1113 L 563 1100 L 563 1091 L 616 1009 L 617 1003 Z M 305 1003 L 303 1005 L 303 1009 L 305 1008 L 307 1010 L 305 1012 L 303 1011 L 302 1027 L 302 1174 L 303 1179 L 306 1182 L 303 1184 L 304 1189 L 309 1192 L 414 1192 L 419 1190 L 421 1183 L 421 1164 L 418 1157 L 412 1155 L 358 1155 L 352 1153 L 349 1149 L 348 1117 L 353 1112 L 366 1110 L 404 1110 L 409 1107 L 411 1100 L 407 1094 L 407 1088 L 409 1083 L 405 1080 L 355 1079 L 348 1073 L 348 1040 L 352 1036 L 365 1034 L 417 1034 L 420 1030 L 421 1021 L 420 1002 L 417 1002 L 415 1000 L 314 1000 Z M 262 1001 L 257 1000 L 251 1002 L 232 1000 L 227 1001 L 221 1005 L 224 1008 L 225 1012 L 224 1079 L 222 1081 L 223 1088 L 221 1093 L 221 1105 L 216 1113 L 214 1113 L 203 1100 L 200 1092 L 167 1043 L 163 1034 L 156 1025 L 155 1021 L 148 1015 L 144 1009 L 145 1006 L 143 1004 L 135 1001 L 106 1001 L 101 1002 L 97 1005 L 97 1188 L 100 1192 L 136 1193 L 140 1189 L 140 1105 L 138 1091 L 139 1086 L 144 1081 L 148 1082 L 163 1101 L 187 1138 L 199 1153 L 213 1179 L 222 1190 L 229 1192 L 261 1192 L 264 1189 L 266 1183 L 267 1013 L 265 1011 L 266 1005 Z M 2354 997 L 2326 1006 L 2316 1012 L 2306 1022 L 2298 1038 L 2299 1071 L 2307 1084 L 2324 1099 L 2344 1107 L 2361 1111 L 2383 1122 L 2388 1127 L 2391 1133 L 2390 1147 L 2388 1151 L 2382 1156 L 2373 1160 L 2364 1160 L 2354 1156 L 2340 1140 L 2331 1138 L 2308 1138 L 2300 1141 L 2299 1152 L 2308 1167 L 2319 1178 L 2332 1186 L 2354 1192 L 2390 1191 L 2410 1183 L 2421 1174 L 2431 1163 L 2439 1143 L 2438 1126 L 2430 1108 L 2421 1099 L 2400 1087 L 2391 1085 L 2381 1080 L 2374 1079 L 2351 1068 L 2341 1052 L 2347 1039 L 2350 1036 L 2360 1033 L 2378 1036 L 2392 1051 L 2396 1052 L 2428 1052 L 2432 1050 L 2434 1047 L 2434 1038 L 2423 1019 L 2403 1005 L 2392 1003 L 2381 998 Z M 1950 998 L 1938 1003 L 1928 1005 L 1905 1017 L 1892 1030 L 1880 1046 L 1876 1053 L 1877 1059 L 1875 1063 L 1870 1067 L 1869 1071 L 1872 1075 L 1872 1086 L 1870 1096 L 1871 1112 L 1869 1114 L 1872 1127 L 1878 1136 L 1877 1138 L 1885 1152 L 1904 1172 L 1914 1179 L 1930 1187 L 1939 1189 L 1941 1191 L 1989 1191 L 1994 1188 L 2000 1187 L 2022 1175 L 2044 1153 L 2050 1144 L 2059 1124 L 2064 1101 L 2063 1084 L 2059 1062 L 2051 1046 L 2043 1035 L 2024 1016 L 2018 1012 L 2003 1005 L 1991 1003 L 1980 998 Z M 1960 1036 L 1968 1036 L 1994 1044 L 2008 1057 L 2015 1069 L 2017 1077 L 2017 1112 L 2016 1119 L 2003 1140 L 1991 1149 L 1969 1155 L 1962 1155 L 1951 1151 L 1946 1151 L 1934 1145 L 1921 1132 L 1914 1119 L 1912 1110 L 1913 1079 L 1920 1061 L 1939 1042 Z M 1185 997 L 1160 998 L 1152 1002 L 1140 1004 L 1117 1016 L 1104 1028 L 1095 1039 L 1087 1053 L 1080 1072 L 1080 1116 L 1084 1129 L 1092 1146 L 1100 1157 L 1119 1175 L 1132 1183 L 1154 1191 L 1196 1191 L 1211 1186 L 1227 1178 L 1239 1168 L 1257 1148 L 1268 1127 L 1273 1105 L 1274 1091 L 1269 1066 L 1256 1039 L 1238 1020 L 1224 1009 L 1208 1003 L 1203 1003 Z M 1171 1036 L 1182 1036 L 1189 1039 L 1194 1039 L 1205 1044 L 1219 1058 L 1224 1068 L 1227 1088 L 1226 1118 L 1218 1133 L 1205 1146 L 1197 1150 L 1180 1155 L 1166 1154 L 1152 1150 L 1145 1146 L 1130 1131 L 1125 1120 L 1123 1107 L 1122 1086 L 1124 1081 L 1124 1074 L 1132 1057 L 1146 1044 L 1157 1039 L 1162 1039 Z M 961 998 L 951 1003 L 945 1004 L 930 1012 L 919 1023 L 911 1040 L 910 1055 L 912 1071 L 923 1087 L 935 1097 L 949 1103 L 968 1108 L 998 1122 L 1002 1126 L 1006 1136 L 1006 1143 L 1004 1149 L 999 1155 L 992 1158 L 975 1159 L 964 1152 L 959 1144 L 951 1139 L 915 1139 L 911 1142 L 910 1147 L 912 1154 L 918 1164 L 935 1180 L 948 1187 L 960 1191 L 1001 1191 L 1024 1182 L 1042 1165 L 1051 1147 L 1052 1126 L 1047 1113 L 1043 1107 L 1030 1095 L 1006 1084 L 976 1074 L 966 1067 L 963 1067 L 961 1065 L 958 1055 L 959 1042 L 963 1037 L 977 1032 L 994 1037 L 1000 1046 L 1008 1052 L 1043 1052 L 1047 1048 L 1047 1037 L 1036 1018 L 1016 1004 L 988 997 Z M 1632 872 L 1635 880 L 1662 881 L 1712 880 L 1717 877 L 1719 872 Z M 1258 876 L 1259 879 L 1262 880 L 1325 880 L 1335 878 L 1340 872 L 1259 872 Z M 907 872 L 908 879 L 915 880 L 987 880 L 991 878 L 993 872 Z M 72 872 L 74 876 L 80 880 L 258 880 L 261 879 L 266 872 Z" />
</svg>